<svg xmlns="http://www.w3.org/2000/svg" width="256" height="256" viewBox="0 0 256 256"><g id="check-mark_-_in-work"><g opacity="0.375"><path d="M74.203,132.308l-1.66279,3.69556a89.85029,89.85029,0,0,1,34.49462,17.40774l3.05135-3.01413A93.69432,93.69432,0,0,0,74.203,132.308Z" fill="#fff5bf"/><path d="M77.68982,124.96006a89.8658,89.8658,0,0,1,34.49461,17.40774l3.05135-3.01413A93.7177,93.7177,0,0,0,79.3526,121.2645Z" fill="#fff5bf"/><path d="M84.50226,110.221l-1.66279,3.69556a90.0591,90.0591,0,0,1,34.49461,17.40774l3.05177-3.015A93.63917,93.63917,0,0,0,84.50226,110.221Z" fill="#fff5bf"/><path d="M89.65191,99.17756l-1.66278,3.69557a90.05119,90.05119,0,0,1,34.49461,17.40773l3.05177-3.015A93.60807,93.60807,0,0,0,89.65191,99.17756Z" fill="#fff5bf"/><path d="M94.80156,88.13409l-1.66278,3.69557a90.05112,90.05112,0,0,1,34.49461,17.40773l3.05177-3.015A93.57675,93.57675,0,0,0,94.80156,88.13409Z" fill="#fff5bf"/><path d="M98.28843,80.78619a90.04363,90.04363,0,0,1,34.49462,17.40773l3.05177-3.015a93.55335,93.55335,0,0,0-35.8836-18.08827Z" fill="#fff5bf"/><path d="M168.70426,157.62952c-12.80981-3.62245-27.23924-4.63977-42.90863-3.023l-.12528,3.79816c15.09659-1.55689,28.97578-.60208,41.26359,2.89162Z" fill="#fff5bf"/><path d="M172.0836,150.2528l1.77032-3.66675c-12.80919-3.6238-27.23925-4.63977-42.90864-3.023l-.12527,3.79817C145.91659,145.80429,159.79453,146.7618,172.0836,150.2528Z" fill="#fff5bf"/><path d="M177.23325,139.20933l1.77032-3.66675c-12.81631-3.62672-27.23741-4.64029-42.90822-3.02393l-.12569,3.79907C151.06855,134.76043,164.95246,135.72105,177.23325,139.20933Z" fill="#fff5bf"/><path d="M182.38291,128.16586l1.77031-3.66675c-12.814-3.63166-27.23741-4.64029-42.90821-3.02393l-.1257,3.79907C156.21821,123.717,170.10149,124.67893,182.38291,128.16586Z" fill="#fff5bf"/><path d="M187.53256,117.12239l1.77032-3.66675c-12.81862-3.62177-27.23762-4.63984-42.90822-3.02393l-.12569,3.79907C161.36786,112.67349,175.2503,113.63726,187.53256,117.12239Z" fill="#fff5bf"/><path d="M192.68221,106.07893l1.77032-3.66675c-12.81652-3.62627-27.23741-4.6403-42.90821-3.02393l-.1257,3.79906C166.5173,101.63047,180.39933,102.59514,192.68221,106.07893Z" fill="#fff5bf"/><path d="M212.22714,104.101l2.44449-5.24223L213.186,98.167c-1.89679-.88282-3.81282-1.70818-5.72134-2.49488l1.73421-3.719-1.64156-.63953c-16.75989-6.5314-36.60394-8.03007-58.99-4.49039-14.47873-13.418-31.15855-21.70545-49.60874-24.60856l-1.8071-.28453-1.73436,3.71935c-2.13625-.29735-4.31061-.56813-6.51859-.78518l-1.72911-.16961L84.72493,69.9369,76.71265,67.79,35.76058,155.612l60.17228,16.12311-1.71656,3.68116,23.18222,6.21166,1.71655-3.68116,60.17228,16.12311,40.95207-87.822ZM89.58018,68.8458c1.38742.15111,2.75493.32487,4.10936.50846l-37.5,80.419.23181.03653q-2.14473-.30086-4.339-.54965ZM41.34084,152.96613l37.519-80.45968,4.14858,1.1116L46.19263,152.56969l2.42712.23835c19.68155,1.93119,36.27712,7.09287,49.50159,15.37238ZM107.81093,169.565a94.22719,94.22719,0,0,0-38.58277-21.19649q-3.58755-.96128-7.275-1.6344L99.46584,66.288c16.88806,3.01317,32.24478,10.81566,45.68281,23.2061Zm60.426,10.23119,37.5-80.419c1.20594.50246,2.41378,1.01876,3.618,1.5621l-37.4978,80.4143q-1.9112-.85266-3.82732-1.63814Zm-19.22461-89.2669c20.72431-3.23617,39.13795-1.99042,54.77348,3.71108l-37.51268,80.4462c-15.72335-5.65881-34.06632-7.03222-54.59851-4.08629Zm28.12785,98.82413L120.35892,174.139c17.15274-.14084,34.34132,3.75112,51.25035,11.624l2.08557.97081,36.81575-78.95163,4.14857,1.11161Z" fill="#b44739"/></g></g></svg>